<mxfile host="app.diagrams.net" modified="2024-05-16T14:37:34.019Z" agent="Mozilla/5.0 (Windows NT 10.0; Win64; x64) AppleWebKit/537.36 (KHTML, like Gecko) Chrome/124.0.0.0 Safari/537.36" etag="Lal-4K-hj8hrH_G6D3Eb" version="24.4.2" type="device">
  <diagram name="PÃ¡gina-1" id="7TjXHgfC4dam1Ho7S5aU">
    <mxGraphModel dx="1247" dy="671" grid="1" gridSize="10" guides="1" tooltips="1" connect="1" arrows="1" fold="1" page="1" pageScale="1" pageWidth="827" pageHeight="1169" math="0" shadow="0">
      <root>
        <mxCell id="0" />
        <mxCell id="1" parent="0" />
        <mxCell id="Dl8Hr2eYlsPiv_7VcIx8-1" value="Pessoa" style="swimlane;fontStyle=1;align=center;verticalAlign=top;childLayout=stackLayout;horizontal=1;startSize=26;horizontalStack=0;resizeParent=1;resizeParentMax=0;resizeLast=0;collapsible=1;marginBottom=0;whiteSpace=wrap;html=1;" vertex="1" parent="1">
          <mxGeometry x="100" y="510" width="160" height="110" as="geometry" />
        </mxCell>
        <mxCell id="Dl8Hr2eYlsPiv_7VcIx8-2" value="+ login: string&lt;div&gt;- password: string&lt;/div&gt;" style="text;strokeColor=none;fillColor=none;align=left;verticalAlign=top;spacingLeft=4;spacingRight=4;overflow=hidden;rotatable=0;points=[[0,0.5],[1,0.5]];portConstraint=eastwest;whiteSpace=wrap;html=1;" vertex="1" parent="Dl8Hr2eYlsPiv_7VcIx8-1">
          <mxGeometry y="26" width="160" height="34" as="geometry" />
        </mxCell>
        <mxCell id="Dl8Hr2eYlsPiv_7VcIx8-3" value="" style="line;strokeWidth=1;fillColor=none;align=left;verticalAlign=middle;spacingTop=-1;spacingLeft=3;spacingRight=3;rotatable=0;labelPosition=right;points=[];portConstraint=eastwest;strokeColor=inherit;" vertex="1" parent="Dl8Hr2eYlsPiv_7VcIx8-1">
          <mxGeometry y="60" width="160" height="8" as="geometry" />
        </mxCell>
        <mxCell id="Dl8Hr2eYlsPiv_7VcIx8-4" value="+ mandarEmail(): bool&lt;div&gt;+ arquivarEmail(): bool&lt;/div&gt;" style="text;strokeColor=none;fillColor=none;align=left;verticalAlign=top;spacingLeft=4;spacingRight=4;overflow=hidden;rotatable=0;points=[[0,0.5],[1,0.5]];portConstraint=eastwest;whiteSpace=wrap;html=1;" vertex="1" parent="Dl8Hr2eYlsPiv_7VcIx8-1">
          <mxGeometry y="68" width="160" height="42" as="geometry" />
        </mxCell>
        <mxCell id="Dl8Hr2eYlsPiv_7VcIx8-5" value="E-mail" style="swimlane;fontStyle=1;align=center;verticalAlign=top;childLayout=stackLayout;horizontal=1;startSize=26;horizontalStack=0;resizeParent=1;resizeParentMax=0;resizeLast=0;collapsible=1;marginBottom=0;whiteSpace=wrap;html=1;" vertex="1" parent="1">
          <mxGeometry x="460" y="497" width="160" height="88" as="geometry" />
        </mxCell>
        <mxCell id="Dl8Hr2eYlsPiv_7VcIx8-6" value="# destinatario: string&lt;div&gt;# remetente: string&lt;/div&gt;&lt;div&gt;# conteudo: string&lt;/div&gt;" style="text;strokeColor=none;fillColor=none;align=left;verticalAlign=top;spacingLeft=4;spacingRight=4;overflow=hidden;rotatable=0;points=[[0,0.5],[1,0.5]];portConstraint=eastwest;whiteSpace=wrap;html=1;" vertex="1" parent="Dl8Hr2eYlsPiv_7VcIx8-5">
          <mxGeometry y="26" width="160" height="54" as="geometry" />
        </mxCell>
        <mxCell id="Dl8Hr2eYlsPiv_7VcIx8-7" value="" style="line;strokeWidth=1;fillColor=none;align=left;verticalAlign=middle;spacingTop=-1;spacingLeft=3;spacingRight=3;rotatable=0;labelPosition=right;points=[];portConstraint=eastwest;strokeColor=inherit;" vertex="1" parent="Dl8Hr2eYlsPiv_7VcIx8-5">
          <mxGeometry y="80" width="160" height="8" as="geometry" />
        </mxCell>
        <mxCell id="Dl8Hr2eYlsPiv_7VcIx8-9" value="1..*" style="endArrow=open;html=1;endSize=12;startArrow=diamondThin;startSize=14;startFill=0;edgeStyle=orthogonalEdgeStyle;align=left;verticalAlign=bottom;rounded=0;entryX=0;entryY=0.5;entryDx=0;entryDy=0;" edge="1" parent="1" target="Dl8Hr2eYlsPiv_7VcIx8-6">
          <mxGeometry x="-1" y="3" relative="1" as="geometry">
            <mxPoint x="260" y="564.57" as="sourcePoint" />
            <mxPoint x="420" y="564.57" as="targetPoint" />
          </mxGeometry>
        </mxCell>
        <mxCell id="Dl8Hr2eYlsPiv_7VcIx8-10" value="0..*" style="text;html=1;align=center;verticalAlign=middle;resizable=0;points=[];autosize=1;strokeColor=none;fillColor=none;" vertex="1" parent="1">
          <mxGeometry x="420" y="526" width="40" height="30" as="geometry" />
        </mxCell>
      </root>
    </mxGraphModel>
  </diagram>
</mxfile>
